<svg width="140" height="40" viewBox="0 0 140 40" fill="none" xmlns="http://www.w3.org/2000/svg">
<path d="M126.609 21.7819C126.609 20.5499 126.851 19.4572 127.335 18.5039C127.833 17.5505 128.501 16.8172 129.337 16.3039C130.187 15.7905 131.133 15.5339 132.175 15.5339C133.084 15.5339 133.876 15.7172 134.551 16.0839C135.24 16.4505 135.79 16.9125 136.201 17.4699V15.7319H139.303V27.9199H136.201V26.1379C135.805 26.7099 135.255 27.1865 134.551 27.5679C133.861 27.9345 133.062 28.1179 132.153 28.1179C131.126 28.1179 130.187 27.8539 129.337 27.3259C128.501 26.7979 127.833 26.0572 127.335 25.1039C126.851 24.1359 126.609 23.0285 126.609 21.7819ZM136.201 21.8259C136.201 21.0779 136.054 20.4399 135.761 19.9119C135.467 19.3692 135.071 18.9585 134.573 18.6799C134.074 18.3865 133.539 18.2399 132.967 18.2399C132.395 18.2399 131.867 18.3792 131.383 18.6579C130.899 18.9365 130.503 19.3472 130.195 19.8899C129.901 20.4179 129.755 21.0485 129.755 21.7819C129.755 22.5152 129.901 23.1605 130.195 23.7179C130.503 24.2605 130.899 24.6785 131.383 24.9719C131.881 25.2652 132.409 25.4119 132.967 25.4119C133.539 25.4119 134.074 25.2725 134.573 24.9939C135.071 24.7005 135.467 24.2899 135.761 23.7619C136.054 23.2192 136.201 22.5739 136.201 21.8259Z" fill="#202124"/>
<path d="M123.28 14.2799C122.737 14.2799 122.282 14.1112 121.916 13.7739C121.564 13.4219 121.388 12.9892 121.388 12.4759C121.388 11.9625 121.564 11.5372 121.916 11.1999C122.282 10.8479 122.737 10.6719 123.28 10.6719C123.822 10.6719 124.27 10.8479 124.622 11.1999C124.988 11.5372 125.172 11.9625 125.172 12.4759C125.172 12.9892 124.988 13.4219 124.622 13.7739C124.27 14.1112 123.822 14.2799 123.28 14.2799ZM124.798 15.7319V27.9199H121.718V15.7319H124.798Z" fill="#202124"/>
<path d="M119.115 11.6399V27.9199H116.035V11.6399H119.115Z" fill="#202124"/>
<path d="M104.645 17.4919C105.041 16.9345 105.583 16.4725 106.273 16.1059C106.977 15.7245 107.776 15.5339 108.671 15.5339C109.712 15.5339 110.651 15.7905 111.487 16.3039C112.337 16.8172 113.005 17.5505 113.489 18.5039C113.987 19.4425 114.237 20.5352 114.237 21.7819C114.237 23.0285 113.987 24.1359 113.489 25.1039C113.005 26.0572 112.337 26.7979 111.487 27.3259C110.651 27.8539 109.712 28.1179 108.671 28.1179C107.776 28.1179 106.984 27.9345 106.295 27.5679C105.62 27.2012 105.07 26.7392 104.645 26.1819V33.7279H101.565V15.7319H104.645V17.4919ZM111.091 21.7819C111.091 21.0485 110.937 20.4179 110.629 19.8899C110.335 19.3472 109.939 18.9365 109.441 18.6579C108.957 18.3792 108.429 18.2399 107.857 18.2399C107.299 18.2399 106.771 18.3865 106.273 18.6799C105.789 18.9585 105.393 19.3692 105.085 19.9119C104.791 20.4545 104.645 21.0925 104.645 21.8259C104.645 22.5592 104.791 23.1972 105.085 23.7399C105.393 24.2825 105.789 24.7005 106.273 24.9939C106.771 25.2725 107.299 25.4119 107.857 25.4119C108.429 25.4119 108.957 25.2652 109.441 24.9719C109.939 24.6785 110.335 24.2605 110.629 23.7179C110.937 23.1752 111.091 22.5299 111.091 21.7819Z" fill="#202124"/>
<path d="M94.0878 15.5559C95.5838 15.5559 96.7865 16.0179 97.6958 16.9419C98.6198 17.8512 99.0818 19.1272 99.0818 20.7699V27.9199H96.0018V21.1879C96.0018 20.2346 95.7598 19.5086 95.2758 19.0099C94.7918 18.4966 94.1318 18.2399 93.2958 18.2399C92.4598 18.2399 91.7925 18.4966 91.2938 19.0099C90.8098 19.5086 90.5678 20.2346 90.5678 21.1879V27.9199H87.4878V21.1879C87.4878 20.2346 87.2458 19.5086 86.7618 19.0099C86.2778 18.4966 85.6178 18.2399 84.7818 18.2399C83.9312 18.2399 83.2565 18.4966 82.7578 19.0099C82.2738 19.5086 82.0318 20.2346 82.0318 21.1879V27.9199H78.9518V15.7319H82.0318V17.2059C82.4278 16.6926 82.9338 16.2892 83.5498 15.9959C84.1805 15.7026 84.8698 15.5559 85.6178 15.5559C86.5712 15.5559 87.4218 15.7612 88.1698 16.1719C88.9178 16.5679 89.4972 17.1399 89.9078 17.8879C90.3038 17.1839 90.8758 16.6192 91.6238 16.1939C92.3865 15.7686 93.2078 15.5559 94.0878 15.5559Z" fill="#202124"/>
<path d="M63.6897 21.7819C63.6897 20.5499 63.9317 19.4572 64.4157 18.5039C64.9144 17.5505 65.5817 16.8172 66.4177 16.3039C67.2684 15.7905 68.2144 15.5339 69.2557 15.5339C70.165 15.5339 70.957 15.7172 71.6317 16.0839C72.321 16.4505 72.871 16.9125 73.2817 17.4699V15.7319H76.3837V27.9199H73.2817V26.1379C72.8857 26.7099 72.3357 27.1865 71.6317 27.5679C70.9424 27.9345 70.143 28.1179 69.2337 28.1179C68.207 28.1179 67.2684 27.8539 66.4177 27.3259C65.5817 26.7979 64.9144 26.0572 64.4157 25.1039C63.9317 24.1359 63.6897 23.0285 63.6897 21.7819ZM73.2817 21.8259C73.2817 21.0779 73.135 20.4399 72.8417 19.9119C72.5484 19.3692 72.1524 18.9585 71.6537 18.6799C71.155 18.3865 70.6197 18.2399 70.0477 18.2399C69.4757 18.2399 68.9477 18.3792 68.4637 18.6579C67.9797 18.9365 67.5837 19.3472 67.2757 19.8899C66.9824 20.4179 66.8357 21.0485 66.8357 21.7819C66.8357 22.5152 66.9824 23.1605 67.2757 23.7179C67.5837 24.2605 67.9797 24.6785 68.4637 24.9719C68.9624 25.2652 69.4904 25.4119 70.0477 25.4119C70.6197 25.4119 71.155 25.2725 71.6537 24.9939C72.1524 24.7005 72.5484 24.2899 72.8417 23.7619C73.135 23.2192 73.2817 22.5739 73.2817 21.8259Z" fill="#202124"/>
<path d="M56.8174 28.0739C55.7468 28.0739 54.7788 27.8905 53.9134 27.5239C53.0628 27.1572 52.3881 26.6292 51.8894 25.9399C51.3908 25.2505 51.1341 24.4365 51.1194 23.4979H54.4194C54.4634 24.1285 54.6834 24.6272 55.0794 24.9939C55.4901 25.3605 56.0474 25.5439 56.7514 25.5439C57.4701 25.5439 58.0348 25.3752 58.4454 25.0379C58.8561 24.6859 59.0614 24.2312 59.0614 23.6739C59.0614 23.2192 58.9221 22.8452 58.6434 22.5519C58.3648 22.2585 58.0128 22.0312 57.5874 21.8699C57.1768 21.6939 56.6048 21.5032 55.8714 21.2979C54.8741 21.0045 54.0601 20.7185 53.4294 20.4399C52.8134 20.1465 52.2781 19.7139 51.8234 19.1419C51.3834 18.5552 51.1634 17.7779 51.1634 16.8099C51.1634 15.9005 51.3908 15.1085 51.8454 14.4339C52.3001 13.7592 52.9381 13.2459 53.7594 12.8939C54.5808 12.5272 55.5194 12.3439 56.5754 12.3439C58.1594 12.3439 59.4428 12.7325 60.4254 13.5099C61.4228 14.2725 61.9728 15.3432 62.0754 16.7219H58.6874C58.6581 16.1939 58.4308 15.7612 58.0054 15.4239C57.5948 15.0719 57.0448 14.8959 56.3554 14.8959C55.7541 14.8959 55.2701 15.0499 54.9034 15.3579C54.5514 15.6659 54.3754 16.1132 54.3754 16.6999C54.3754 17.1105 54.5074 17.4552 54.7714 17.7339C55.0501 17.9979 55.3874 18.2179 55.7834 18.3939C56.1941 18.5552 56.7661 18.7459 57.4994 18.9659C58.4968 19.2592 59.3108 19.5525 59.9414 19.8459C60.5721 20.1392 61.1148 20.5792 61.5694 21.1659C62.0241 21.7525 62.2514 22.5225 62.2514 23.4759C62.2514 24.2972 62.0388 25.0599 61.6134 25.7639C61.1881 26.4679 60.5648 27.0325 59.7434 27.4579C58.9221 27.8685 57.9468 28.0739 56.8174 28.0739Z" fill="#202124"/>
<path d="M-0.000793457 18C-0.000793457 10.5005 -0.000793457 6.7508 1.90904 4.12215C2.52583 3.2732 3.27241 2.52663 4.12135 1.90983C6.75001 0 10.4997 0 17.9992 0H21.9992C29.4987 0 33.2484 0 35.8771 1.90983C36.726 2.52663 37.4726 3.2732 38.0894 4.12215C39.9992 6.7508 39.9992 10.5005 39.9992 18V22C39.9992 29.4995 39.9992 33.2492 38.0894 35.8779C37.4726 36.7268 36.726 37.4734 35.8771 38.0902C33.2484 40 29.4987 40 21.9992 40H17.9992C10.4997 40 6.75001 40 4.12135 38.0902C3.27241 37.4734 2.52583 36.7268 1.90904 35.8779C-0.000793457 33.2492 -0.000793457 29.4995 -0.000793457 22V18Z" fill="#E9455B"/>
<mask id="mask0_2309_689" style="mask-type:alpha" maskUnits="userSpaceOnUse" x="-1" y="0" width="41" height="40">
<path d="M-0.000793457 18C-0.000793457 10.5005 -0.000793457 6.7508 1.90904 4.12215C2.52583 3.2732 3.27241 2.52663 4.12135 1.90983C6.75001 0 10.4997 0 17.9992 0H21.9992C29.4987 0 33.2484 0 35.8771 1.90983C36.726 2.52663 37.4726 3.2732 38.0894 4.12215C39.9992 6.7508 39.9992 10.5005 39.9992 18V22C39.9992 29.4995 39.9992 33.2492 38.0894 35.8779C37.4726 36.7268 36.726 37.4734 35.8771 38.0902C33.2484 40 29.4987 40 21.9992 40H17.9992C10.4997 40 6.75001 40 4.12135 38.0902C3.27241 37.4734 2.52583 36.7268 1.90904 35.8779C-0.000793457 33.2492 -0.000793457 29.4995 -0.000793457 22V18Z" fill="#909090"/>
</mask>
<g mask="url(#mask0_2309_689)">
<path d="M0.284668 34.5712V40.4547H39.999V2.85693L0.284668 34.5712Z" fill="#DF1A35" fill-opacity="0.75"/>
</g>
<path d="M7.99969 28.3728L25.5949 14.3101C29.033 16.1496 31.8043 18.728 31.9563 23.3183C32.3702 35.774 13.4905 37.4244 7.99969 28.3728Z" fill="#F5F5F5"/>
<path d="M30.5677 10.3369C24.6208 1.9816 7.65344 4.72343 8.00823 15.3052C8.14334 19.4041 10.3705 22.8572 13.2665 24.1905L30.5677 10.3369Z" fill="white"/>
<path d="M25.6004 14.3101L13.2348 24.1935L29.8246 17.5594C28.7414 16.1152 26.503 14.7614 25.6004 14.3101Z" fill="#FBDBDF"/>
</svg>
